<svg version="1.1" xmlns="http://www.w3.org/2000/svg" xmlns:xlink="http://www.w3.org/1999/xlink" width="102.13716" height="21.1086" viewBox="0,0,102.13716,21.1086"><g transform="translate(-192.53005,-178.06315)"><g data-paper-data="{&quot;isPaintingLayer&quot;:true}" fill-rule="nonzero" stroke-linejoin="miter" stroke-miterlimit="10" stroke-dasharray="" stroke-dashoffset="0" style="mix-blend-mode: normal"><path d="M292.78182,179.40892c0,0 1.14029,1.9703 1.49727,4.66601c0.63395,4.78713 -0.58697,11.86191 -10.66368,14.25277c-15.38685,3.65078 -19.83359,-10.71878 -19.83359,-10.71878z" fill="#332217" stroke="#332217" stroke-width="0.5" stroke-linecap="round"/><path d="M291.02122,182.61195c0,0 0.56678,0.76784 0.77454,1.91377c0.35534,1.95997 0.0969,4.92149 -1.77515,7.38121c-4.4715,5.34184 -9.53272,4.90502 -9.53272,4.90502c0,0 -0.33477,0.00448 0.04176,-0.20623c0.9457,-0.5292 3.61406,-2.06196 6.47905,-5.83283c3.01697,-4.09919 4.01252,-8.16095 4.01252,-8.16095z" fill="#65442e" stroke="#65442e" stroke-width="0.5" stroke-linecap="round"/><path d="M276.22121,190.64529c0,2.30119 -1.64162,4.43333 -3.66666,4.43333c-2.02504,0 -3.66667,-1.86549 -3.66667,-4.16667c0,-2.30119 1.70829,-4.3 3.73333,-4.3c2.02504,0 3.6,1.73215 3.6,4.03333z" fill="#f3f2f2" stroke="none" stroke-width="0" stroke-linecap="butt"/><path d="M216.73397,187.68788c0,0 -6.56304,11.1065 -19.45583,5.86458c-8.83599,-3.59252 -1.92879,-15.17227 -1.92879,-15.17227z" fill="#332217" stroke="#332217" stroke-width="0.5" stroke-linecap="round"/><path d="M213.46404,188.96061c0,0 -3.70049,3.64635 -6.19898,3.87769c-1.69516,0.15696 -7.07437,0.41158 -7.80569,0.07148c-2.14437,-0.99723 -3.39533,-2.74916 -3.39533,-2.74916c0,0 2.25286,0.0493 4.80197,0.06825c2.65816,0.01976 5.65011,0.07318 7.32633,-0.0634c2.5,-0.2037 5.2717,-1.20486 5.2717,-1.20486z" fill="#65442e" stroke="#65442e" stroke-width="0.5" stroke-linecap="round"/><path d="M200.19737,185.62727c0,1.95141 -1.61177,3.53333 -3.6,3.53333c-1.98823,0 -3.6,-1.58193 -3.6,-3.53333c0,-1.95141 1.61177,-3.53333 3.6,-3.53333c0.84683,0 1.82537,-0.11302 2.44017,0.36725c0.82865,0.64733 1.15983,2.04582 1.15983,3.16608z" fill="#f3f2f2" stroke="none" stroke-width="0" stroke-linecap="butt"/></g></g></svg>