<svg version="1.1" xmlns="http://www.w3.org/2000/svg" xmlns:xlink="http://www.w3.org/1999/xlink" width="122.74166" height="100.53532" viewBox="0,0,122.74166,100.53532"><g transform="translate(-156.80197,-151.29209)"><g data-paper-data="{&quot;isPaintingLayer&quot;:true}" fill-rule="nonzero" stroke-linejoin="miter" stroke-miterlimit="10" stroke-dasharray="" stroke-dashoffset="0" style="mix-blend-mode: normal"><path d="M279.21969,179.73464c0,0 0.54699,7.12541 -1.33445,13.72677c-2.2599,7.92931 -9.66989,15.06314 -29.80796,17.88835c-2.18126,0.30602 -5.338,1.06415 -9.9448,1.24046c-17.53615,0.67113 -49.33869,-0.34349 -65.42648,-3.91691c-1.52351,-0.1907 -6.74793,-1.45848 -9.62819,-3.54855c-5.94956,-4.31733 -5.52479,-13.05679 -5.52479,-13.05679l-0.5,-29.33333c0,0 3.85131,-7.36028 8.69583,-9.60725c4.91064,-2.27765 13.15864,-1.74877 16.10641,-0.60197c13.4195,5.22072 13.36443,26.70922 13.36443,26.70922l17.66667,0.83333c0,0 1.82145,-4.21302 4.93134,-9.50297c5.47863,-9.31919 14.67738,-19.01359 31.23691,-18.5163c29.34158,0.88114 30.16509,27.68594 30.16509,27.68594z" fill="#343734" stroke="#343734" stroke-width="0.5" stroke-linecap="round"/><path d="M192.36657,251.348c-12.36127,-0.65278 -16.83677,-3.25773 -16.83677,-3.25773c0,0 -3.25197,-18.50298 17.69107,-20.03677c32.60948,-2.38819 48.30893,23.03677 48.30893,23.03677c0,0 -37.07794,0.89594 -49.16323,0.25773z" fill="#343734" stroke="#343734" stroke-width="0.5" stroke-linecap="round"/><path d="M267.11569,192.98817c1.08662,2.618 -0.95857,4.52622 -5.44233,6.13642c-4.48377,1.61019 -9.93043,1.53483 -10.79483,-0.30539c-0.8644,-1.84022 2.06968,-4.63734 6.55345,-6.24753c4.48377,-1.61019 8.90432,-1.4613 9.68371,0.4165z" fill="#fe9aae" stroke="none" stroke-width="0" stroke-linecap="butt"/><path d="M161.04504,190.08816c0.53975,-1.8778 3.60107,-2.0267 6.70617,-0.4165c3.1051,1.61019 5.137,4.40731 4.53839,6.24753c-0.59862,1.84022 -4.89738,1.3301 -7.58675,-0.80572c-2.51637,-1.99842 -4.31033,-3.30731 -3.65782,-5.02531z" fill="#fe9aae" stroke="none" stroke-width="0" stroke-linecap="butt"/></g></g></svg>