<svg version="1.1" xmlns="http://www.w3.org/2000/svg" xmlns:xlink="http://www.w3.org/1999/xlink" width="25.32706" height="27.87089" viewBox="0,0,25.32706,27.87089"><g transform="translate(-225.60991,-161.76138)"><g data-paper-data="{&quot;isPaintingLayer&quot;:true}" fill-rule="nonzero" stroke-width="0.5" stroke-linejoin="miter" stroke-miterlimit="10" stroke-dasharray="" stroke-dashoffset="0" style="mix-blend-mode: normal"><path d="M247.92908,183.59656c0,3.19536 -2.39847,5.78571 -5.35714,5.78571c-2.95867,0 -5.64286,-1.23321 -7.5,-6.5c-0.24884,-0.70569 -1.27495,-2.6447 -0.9122,-3.23143c0.42705,-0.69074 1.72458,-0.93067 2.66711,-1.7033c0.69199,-0.56725 0.92921,-1.78383 1.82183,-1.84565c1.26891,-0.08788 3.07196,1.70895 3.92326,1.70895c1.41352,0 3.05632,-0.83732 4.01366,0.12868c1.04647,1.05595 1.34349,3.98827 1.34349,5.65703z" fill="#d87f9f" stroke="#d87f9f" stroke-linecap="butt"/><path d="M238.42909,175.88227l2,1.71429l1,7.42857l-3.71429,-7z" fill="#c16988" stroke="#c16988" stroke-linecap="round"/><path d="M250.16477,170.36363c0,0 0.97468,2.93359 0.26084,5.48302c-0.36981,1.32078 -1.05015,2.68955 -2.90702,2.95656c-5.15069,0.74066 -7.22219,-0.03916 -8.29849,-1.86881c-0.16431,-0.27932 -0.41798,-0.09341 -0.64053,-0.04515c-0.25041,0.05429 -0.46143,-0.00869 -0.46143,-0.00869c0,0 0.42636,4.79074 -8.92382,3.21489c-0.03235,-0.03259 -0.67447,-0.19768 -0.8619,-0.31659c-0.45305,-0.28742 -0.67088,-0.65097 -0.74347,-0.72791c-1.6077,-1.70425 -1.68281,-2.95135 -1.72904,-3.95407c-0.09503,-2.06085 1.54394,-2.85917 1.54394,-2.85917l0.69842,0.87592c0,0 -3.52786,5.031 4.35834,5.62886c2.94197,0.22303 5.1922,-2.68645 5.19197,-3.33759c-0.00044,-1.25733 -0.05031,-3.91626 -0.05031,-3.91626h1.875c0,0 -1.03265,5.65694 4.4728,5.48822c7.66982,-0.23506 4.6522,-5.98822 4.6522,-5.98822c0,0 0.40773,-0.67336 0.63912,-0.80833c0.26424,-0.15414 0.86088,-0.06667 0.86088,-0.06667z" fill="#313431" stroke="#313431" stroke-linecap="round"/><path d="M244.55681,184.7133l-3.64706,2l3.70588,-2.35294" fill="none" stroke="#d87f9f" stroke-linecap="round"/><path d="M239.73327,185.06625l2.82353,1.52941" fill="none" stroke="#d87f9f" stroke-linecap="round"/><path d="M243.08621,184.30154l-1.94118,2.76471" fill="none" stroke="#d87f9f" stroke-linecap="round"/><path d="M237.24512,171.05813c0,0 -3.19525,-1.97932 -4.60422,-3.14537c-1.35045,-1.11761 -3.82435,-3.7832 -3.82435,-3.7832c0,0 2.11289,-2.31579 8.03058,-2.10456c7.7293,0.27589 10.86228,2.76527 10.86228,2.76527c0,0 -1.49459,1.81348 -2.80957,2.8601c-1.31,1.04265 -5.42257,3.47919 -5.42257,3.47919z" fill="#fa9ba9" stroke="#fa9ba9" stroke-linecap="round"/></g></g></svg>