<svg version="1.1" xmlns="http://www.w3.org/2000/svg" xmlns:xlink="http://www.w3.org/1999/xlink" width="30.87107" height="10.08599" viewBox="0,0,30.87107,10.08599"><g transform="translate(-224.625,-164.67948)"><g data-paper-data="{&quot;isPaintingLayer&quot;:true}" fill-rule="nonzero" stroke-width="0.5" stroke-linecap="round" stroke-linejoin="miter" stroke-miterlimit="10" stroke-dasharray="" stroke-dashoffset="0" style="mix-blend-mode: normal"><path d="M225.89256,168.01253c0,0 0.29657,2.02131 0.54986,2.98695c0.22915,0.87362 1.02969,2.5585 1.02969,2.5585c0,0 12.19333,-0.25327 16.52592,-0.5348c3.32647,-0.21615 7.57068,-0.82315 7.57068,-0.82315c0,0 0.1735,-1.95608 0.1974,-3.0124c0.02344,-1.03609 -0.05535,-3.14101 -0.05535,-3.14101c0,0 1.29916,-0.30193 1.84986,-0.44354c0.50613,-0.13015 1.39445,-0.37465 1.39445,-0.37465c0,0 0.14772,0.52767 0.19197,0.76919c0.04655,0.25406 0.08076,0.71945 0.08076,0.71945c0,0 -1.10221,0.04419 -1.55893,0.11429c-0.35805,0.05496 -0.95812,0.27207 -0.95812,0.27207c0,0 0.19417,2.19077 0.16489,3.27395c-0.03121,1.15467 -0.65921,3.45333 -0.65921,3.45333c0,0 -6.21882,0.59459 -10.04001,0.68476c-4.61515,0.10892 -15.72135,-0.07681 -15.72135,-0.07681c0,0 -0.74498,-1.99846 -1.05295,-2.96439c-0.35262,-1.10595 -0.50955,-3.49583 -0.50955,-3.49583z" fill="#1b1d1b" stroke="#1b1d1b"/><path d="M227.86227,165.16168c2.1567,-0.10019 9.40223,-0.29146 12.56525,-0.21431c1.94282,0.04739 4.76923,0.10514 6.22852,0.25376c0.66308,0.06753 0.8951,0.30261 0.8951,0.30261c0,0 -2.20507,1.56593 -6.00483,3.05093c-1.85875,0.72643 -3.75402,1.46593 -4.49559,1.51044c-0.54682,0.03282 -1.87458,0.00113 -1.87458,0.00113c0,0 -2.61345,-1.26728 -3.97144,-2.08815c-1.42996,-0.86437 -3.90356,-2.66185 -3.90356,-2.66185c0,0 0.16418,-0.13612 0.56113,-0.15456z" fill="#fa9ba9" stroke="#fa9ba9"/></g></g></svg>