<svg version="1.1" xmlns="http://www.w3.org/2000/svg" xmlns:xlink="http://www.w3.org/1999/xlink" width="73.90525" height="146.68013" viewBox="0,0,73.90525,146.68013"><g transform="translate(-188.29958,-148.97092)"><g data-paper-data="{&quot;isPaintingLayer&quot;:true}" fill-rule="nonzero" stroke-width="0.5" stroke-linecap="round" stroke-linejoin="miter" stroke-miterlimit="10" stroke-dasharray="" stroke-dashoffset="0" style="mix-blend-mode: normal"><path d="" fill="#b94848" stroke="#b94848"/><path d="M262.20483,295.65105z" fill="#b94848" stroke="none"/><path d="M240.38636,198.48483c0,0 1.33883,5.54718 -7.12799,5.60756c-8.20654,0.05853 -7.45535,-5.31589 -7.45535,-5.31589c0,0 -4.14744,-6.57569 -14.36501,-10.40316c-10.02648,-3.7559 -20.46832,-3.09684 -20.46832,-3.09684c0,0 8.51449,-3.41885 19.70089,-1.467c11.06923,1.93141 18.79911,11.88367 18.79911,11.88367c0,0 -0.51771,-1.91431 -2.13434,-4.51168c-1.70272,-2.73569 -4.58354,-6.2428 -7.69524,-9.62482c-7.35757,-6.90985 -12.27046,-8.98821 -15.6093,-10.31674c-7.82042,-3.11176 -14.26945,-4.21342 -14.26945,-4.21342c0,0 17.98626,-3.17166 28.67173,3.94143c14.54514,9.2647 16.70327,24.47524 16.70327,24.47524c0,0 0.26481,-2.20478 -0.25776,-5.46203c-0.62562,-3.89958 -2.21731,-9.36184 -4.54361,-15.08847c-1.51376,-3.72642 -3.38691,-8.23208 -6.85662,-13.89624c-5.0917,-8.312 -8.99677,-11.39255 -8.99677,-11.39255c0,0 17.96368,5.53167 24.7218,21.82415c5.35348,12.90617 1.18297,27.05681 1.18297,27.05681z" fill="#3b6748" stroke="#3b6748"/></g></g></svg>