<svg version="1.1" xmlns="http://www.w3.org/2000/svg" xmlns:xlink="http://www.w3.org/1999/xlink" width="43.04191" height="39.82863" viewBox="0,0,43.04191,39.82863"><g transform="translate(-219.83331,-140.58552)"><g data-paper-data="{&quot;isPaintingLayer&quot;:true}" fill-rule="nonzero" stroke-linejoin="miter" stroke-miterlimit="10" stroke-dasharray="" stroke-dashoffset="0" style="mix-blend-mode: normal"><path d="M262.6667,141.86972c0.92568,2.13549 -1.62787,-3.7554 0,0z" fill="#ffe7a2" stroke="#ffe7a2" stroke-width="0" stroke-linecap="butt"/><path d="M224.1691,142.03638c1.4651,-3.7554 -0.83312,2.13549 0,0z" fill="#ffe7a2" stroke="#ffe7a2" stroke-width="0" stroke-linecap="butt"/><path d="M256.79394,166.32507c0,0 1.78486,9.09986 -3.15178,11.07395c-8.92725,3.56987 -15.21185,-0.71032 -15.21185,-0.71032c0,0 -8.20852,6.52584 -14.3039,1.69291c-5.52342,-4.37943 -0.51429,-13.69291 -0.51429,-13.69291c0,0 -0.9163,0.19746 -1.31268,0.31238c-0.48812,0.14153 -1.39855,0.47372 -1.39855,0.47372c0,0 1.77477,-1.65886 2.8377,-2.07134c0.95602,-0.37099 2.48851,-0.46876 2.48851,-0.46876c0,0 -6.03181,7.53494 -1.99383,12.30919c4.96912,5.87515 14.37886,-0.91882 14.37886,-0.91882c0,0 2.13815,1.79377 6.5422,1.74524c3.06598,-0.03379 4.80216,0.38328 7.71235,-1.7437c2.21579,-1.61946 2.67233,-3.68189 2.64894,-5.5667c-0.03974,-3.20161 -1.88329,-5.99545 -1.88329,-5.99545c0,0 2.51574,0.71962 3.55424,1.49108c1.08101,0.80304 2.36496,2.73619 2.36496,2.73619c0,0 -1.3982,-0.33802 -1.90728,-0.4611c-0.33991,-0.08217 -0.8503,-0.20556 -0.8503,-0.20556z" fill="#1d3323" stroke="#1d3323" stroke-width="0.5" stroke-linecap="round"/><path d="M236.89584,170.27322c-6.43282,0.39351 -8.79821,-2.97655 -8.79821,-2.97655c0,0 0.80038,-4.19728 8.48773,-4.3605c9.12386,-0.19371 9.83227,2.9605 9.83227,2.9605c0,0 -1.20399,3.86774 -9.52179,4.37655z" fill="#e96776" stroke="#e96776" stroke-width="0.5" stroke-linecap="round"/><path d="M246.42686,166.02445c0,0 0.10947,-0.05865 0.01548,0.29765c-0.35404,1.34216 -1.89227,4.59927 -8.51263,5.1532c-6.73452,0.56348 -9.00427,-2.41558 -9.67313,-3.73854c-0.18598,-0.36787 -0.12819,-0.36769 -0.12819,-0.36769c0,0 0.04518,-0.00797 0.53393,0.29566c1.01893,0.63298 3.4442,1.57711 8.71107,1.37878c5.48347,-0.20649 7.94394,-2.02497 8.79893,-2.87037c0.26352,-0.26056 0.25453,-0.14869 0.25453,-0.14869z" fill="#c35663" stroke="#c35663" stroke-width="0.5" stroke-linecap="round"/></g></g></svg>