<svg version="1.1" xmlns="http://www.w3.org/2000/svg" xmlns:xlink="http://www.w3.org/1999/xlink" width="100.04702" height="26.11105" viewBox="0,0,100.04702,26.11105"><g transform="translate(-192.74137,-178.43881)"><g data-paper-data="{&quot;isPaintingLayer&quot;:true}" fill-rule="nonzero" stroke-linejoin="miter" stroke-miterlimit="10" stroke-dasharray="" stroke-dashoffset="0" style="mix-blend-mode: normal"><path d="M292.53537,194.04158c0,0 -2.51141,8.6593 -11.81437,9.94059c-11.64277,1.60356 -16.96341,-3.38503 -16.96341,-3.38503c0,0 -1.24763,-18.57498 12.31559,-20.59012c15.08279,-2.24091 16.46219,14.03456 16.46219,14.03456z" fill="#1a2a33" stroke="#1a2a33" stroke-width="0.5" stroke-linecap="round"/><path d="M273.58051,185.33286c1.21694,-0.01431 4.77946,1.39729 2.27214,7.27817c-0.96526,2.26401 -2.6118,3.05985 -4.53432,3.24647c-0.90775,0.08811 -2.11813,-0.15231 -2.65646,-0.39444c-1.67848,-0.75492 -1.93808,-3.56576 -0.57983,-6.27817c1.35824,-2.71241 3.65816,-3.8304 5.49847,-3.85203z" fill="#e4e4e7" stroke="none" stroke-width="0" stroke-linecap="butt"/><path d="M203.31757,200.6798c-7.57605,-1.92665 -10.31074,-7.94719 -10.31074,-7.94719c0,0 4.41702,-15.63381 12.792,-13.91123c10.66063,2.19269 8.083,20.96123 8.083,20.96123c0,0 -3.01667,2.8166 -10.56426,0.89719z" fill="#1a2a33" stroke="#1a2a33" stroke-width="0.5" stroke-linecap="round"/><path d="M197.18183,190.88261c-1.45636,-0.6468 -1.31347,-4.54966 0.2,-6.35c1.83923,-2.30268 4.2646,-3.37722 6.3,-2.55c2.12425,0.86333 0.94075,5.27303 -0.1,6.75c-1.62846,2.31101 -3.87385,3.27192 -6.4,2.15z" fill="#d6d6d9" stroke="none" stroke-width="0" stroke-linecap="butt"/><path d="M283.31315,183.48602c0,0 8.18661,5.01825 6.64077,10.90258c-2.02246,7.6986 -11.97406,7.50498 -16.64077,7.65298c-1.29408,0.04104 5.50771,-2.40588 8.90461,-7.79656c3.34762,-5.31247 1.09539,-10.75899 1.09539,-10.75899z" fill="#345466" stroke="#345466" stroke-width="0.5" stroke-linecap="round"/><path d="M212.33873,191.98693c0.11948,0.71746 0.41437,2.5423 0.36092,4.17996c-0.03416,1.04674 -0.01368,2.27173 -0.66618,2.57278c-5.85541,2.70151 -11.02353,-0.20863 -14.05163,-2.25705c-0.45248,-0.30609 5.22613,1.25416 8.59151,-2.51594c3.16103,-3.54117 3.00849,-8.68406 3.00849,-8.68406c0,0 2.07532,2.61172 2.75689,6.70431z" fill="#345466" stroke="#345466" stroke-width="0.5" stroke-linecap="round"/></g></g></svg>