<svg version="1.1" xmlns="http://www.w3.org/2000/svg" xmlns:xlink="http://www.w3.org/1999/xlink" width="33.62365" height="20.37738" viewBox="0,0,33.62365,20.37738"><defs><linearGradient x1="299.22686" y1="207.05717" x2="299.22686" y2="226.91663" gradientUnits="userSpaceOnUse" id="color-1"><stop offset="0" stop-color="#353636"/><stop offset="1" stop-color="#353636" stop-opacity="0"/></linearGradient><linearGradient x1="299.22686" y1="207.05717" x2="299.22686" y2="226.91663" gradientUnits="userSpaceOnUse" id="color-2"><stop offset="0" stop-color="#353636"/><stop offset="1" stop-color="#353636" stop-opacity="0"/></linearGradient></defs><g transform="translate(-282.40327,-206.79761)"><g data-paper-data="{&quot;isPaintingLayer&quot;:true}" fill-rule="nonzero" stroke-width="0.5" stroke-linecap="butt" stroke-linejoin="miter" stroke-miterlimit="10" stroke-dasharray="" stroke-dashoffset="0" style="mix-blend-mode: normal"><path d="M284.15952,216.34507c-0.9611,-3.21758 -1.48294,-8.84862 -1.48294,-8.84862l11.88167,-0.43928c0,0 -0.04858,3.15614 2.23823,3.2606c2.42936,0.11098 2.48571,-3.1622 2.48571,-3.1622c0,0 5.83733,0.21476 8.39831,0.26219c2.60159,0.04818 8.09643,-0.02454 8.09643,-0.02454c0,0 0.0399,3.60366 -0.96532,7.9096c-0.44118,1.88982 -1.167,4.01956 -2.19291,6.08638c-0.03662,0.07377 -1.38153,2.61051 -1.59326,2.94733c-0.88761,1.41198 -1.74954,2.28283 -1.93051,2.5801c-7.59166,-0.4448 -11.07401,-0.89463 -18.72072,-1.13258c-0.95181,-0.02962 -1.54396,-0.27514 -2.69916,-0.44723c-0.66087,-1.50079 -3.02836,-7.3608 -3.51553,-8.99174z" fill="url(#color-1)" stroke="url(#color-2)"/><path d="" fill="#a2cf76" stroke="#a2cf76"/><path d="" fill="#a2cf76" stroke="#a2cf76"/></g></g></svg>