<svg version="1.1" xmlns="http://www.w3.org/2000/svg" xmlns:xlink="http://www.w3.org/1999/xlink" width="138.7187" height="125.74191" viewBox="0,0,138.7187,125.74191"><g transform="translate(-161.17952,-131.97324)"><g data-paper-data="{&quot;isPaintingLayer&quot;:true}" fill-rule="nonzero" stroke-linejoin="miter" stroke-miterlimit="10" stroke-dasharray="" stroke-dashoffset="0" style="mix-blend-mode: normal"><path d="M192.08634,252.34266c0,0 -1.03233,4.663 -7.75122,4.74945c-6.44309,0.0829 -8.41312,-6.32987 -8.41312,-6.32987c0,0 2.44761,0.0448 3.92959,0.1671c1.32906,0.10968 4.23914,0.65595 6.7996,0.9611c2.92198,0.34823 5.43515,0.45222 5.43515,0.45222z" fill="#d05254" stroke="#d05254" stroke-width="0.5" stroke-linecap="round"/><path d="M268.04238,249.57892c0,0 -0.99599,1.68175 -2.65703,3.24513c-1.42712,1.34321 -3.17684,2.59904 -7.14042,2.62582c-7.23659,0.04889 -7.93332,-5.88743 -7.93332,-5.88743c0,0 4.40099,-0.34061 8.31066,-0.26137c4.21632,0.08546 9.42011,0.27785 9.42011,0.27785z" fill="#d05254" stroke="#d05254" stroke-width="0.5" stroke-linecap="round"/><path d="M193.14842,251.8505c0,0 -2.57584,6.23902 -9.89448,5.56351c-3.92256,-0.36205 -6.6733,-3.16197 -8.86338,-6.81086c0.27125,0.07225 0.55317,0.11834 0.84289,0.1354c0.30662,0.07031 0.62589,0.10745 0.95383,0.10745c0.16112,0 0.32014,-0.00897 0.4766,-0.02643c0.20547,0.0175 0.41339,0.02643 0.6234,0.02643c0.18715,0 0.37265,-0.0071 0.55623,-0.02103c1.4887,1.32966 3.11686,2.47791 4.80025,3.15574c3.56532,1.43562 10.50465,-2.13022 10.50465,-2.13022z" fill="#b64749" stroke="#b64749" stroke-width="0.5" stroke-linecap="round"/><path d="M260.01995,255.96604c-1.11799,0.03882 -4.32915,0.17088 -5.22422,-0.09822c-1.59757,-0.48031 -4.17034,-0.76093 -6.78189,-6.60074c0.35027,0.05199 0.70871,0.07892 1.07344,0.07892c0.25529,0 0.50751,-0.0132 0.75599,-0.03895c3.70714,5.79133 5.96154,4.94693 7.75166,4.92345c1.90908,-0.10734 2.88571,0.10366 5.41915,-1.27092c0.49406,-0.27931 2.3453,-1.04028 4.44826,-3.61464c0.04156,0.0007 0.08321,0.00106 0.12494,0.00106c0.25495,0 0.50682,-0.01316 0.75497,-0.03884c-3.40257,4.78683 -6.52224,6.59638 -8.3223,6.65887z" fill="#b64749" stroke="#b64749" stroke-width="0.5" stroke-linecap="butt"/><path d="" fill="#b94848" stroke="none" stroke-width="0.5" stroke-linecap="butt"/><path d="" fill="#b94848" stroke="none" stroke-width="0.5" stroke-linecap="butt"/><path d="M255.95975,243.83522c0.27578,1.62012 -1.30506,3.01642 -3.15942,3.34238c-2.57499,0.45262 -4.16231,-0.52153 -4.38898,-1.67943c-0.22667,-1.1579 0.24507,-3.01737 3.23644,-3.51404c2.28169,-0.45059 4.08396,0.51164 4.31197,1.8511z" fill="#d05254" stroke="#d05254" stroke-width="0" stroke-linecap="butt"/><path d="M262.17811,239.53545c-0.02614,1.37056 -1.32146,1.81818 -2.72728,1.81818c-1.40582,0 -2.54546,-0.81403 -2.54546,-1.81818c0,-1.00415 1.13964,-1.81818 2.54546,-1.81818c1.40582,0 2.75159,0.54351 2.72728,1.81818z" fill="#d05254" stroke="#d05254" stroke-width="0" stroke-linecap="butt"/><path d="M269.86295,241.87788c0,0.52718 -0.44772,0.88788 -1,0.88788c-0.55228,0 -1.36219,-0.42872 -1.4,-0.95455c-0.06667,-0.92718 0.58105,-1.08788 1.13334,-1.08788c0.55228,0 1.26666,0.62736 1.26666,1.15454z" fill="#d05254" stroke="#d05254" stroke-width="0" stroke-linecap="butt"/><path d="M267.19252,247.43902c-0.45155,1.51579 -2.67404,1.45583 -4.3104,0.74092c-1.63637,-0.71491 -2.80536,-2.46544 -2.28207,-3.6632c0.52329,-1.19775 2.60737,-1.45583 4.24374,-0.74092c1.63637,0.71491 2.98537,1.52606 2.34873,3.6632z" fill="#d05254" stroke="#d05254" stroke-width="0" stroke-linecap="butt"/><path d="M299.56679,230.20298c-0.37088,0.46666 -0.90201,0.54633 -1.1863,0.17797c-0.28429,-0.36837 -0.21409,-1.04529 0.15679,-1.51194c0.37088,-0.46666 0.90201,-0.54633 1.1863,-0.17797c0.28429,0.36837 0.21409,1.04529 -0.15679,1.51194z" fill="#d05254" stroke="#d05254" stroke-width="0" stroke-linecap="butt"/><path d="M283.64139,225.461c-0.27871,0.40413 -0.93465,0.4352 -1.46507,0.06939c-0.53042,-0.36581 -0.73447,-0.98997 -0.45576,-1.3941c0.27871,-0.40413 0.93464,-0.4352 1.46507,-0.06939c0.53042,0.36581 0.73447,0.98997 0.45576,1.3941z" fill="#d05254" stroke="#d05254" stroke-width="0" stroke-linecap="butt"/><path d="M284.65106,233.29714c-0.21653,0.43203 -1.01562,0.23154 -1.57922,-0.10514c-0.5636,-0.33668 -0.67831,-0.68205 -0.46178,-1.11408c0.21653,-0.43203 0.84896,-0.50932 1.41256,-0.17264c0.5636,0.33668 0.84497,0.95983 0.62844,1.39186z" fill="#d05254" stroke="#d05254" stroke-width="0" stroke-linecap="butt"/><path d="M283.6731,228.82123c-0.20668,-1.02149 0.61179,-1.75754 1.8281,-1.64401c1.21631,0.11354 2.36987,1.03365 2.57654,2.05515c0.10152,0.50179 -0.02705,1.14544 -0.4414,1.37439c-0.42915,0.23713 -1.15677,0.0496 -1.7756,-0.00817c-1.21631,-0.11354 -1.98098,-0.75587 -2.18765,-1.77736z" fill="#d05254" stroke="#d05254" stroke-width="0" stroke-linecap="butt"/><path d="M296.56986,229.54866c-0.33319,1.13332 -1.35559,2.13889 -3.02778,2.13889c-1.67219,0 -2.91666,-0.29096 -2.91666,-1.47223c0,-1.18128 1.80003,-3.52778 3.08333,-3.63889c0.83499,-0.07229 2.27677,-0.06433 2.72755,0.46361c0.44861,0.52538 0.35578,1.75273 0.13356,2.50861z" fill="#d05254" stroke="#d05254" stroke-width="0" stroke-linecap="butt"/><path d="M290.79209,233.24309c0,0.64433 -0.94435,0.88889 -1.97222,0.88889c-1.02787,0 -1.52778,-0.24456 -1.52778,-0.88889c0,-0.64433 1.11102,-1.16667 2.13889,-1.16667c1.02787,0 1.36111,0.52234 1.36111,1.16667z" fill="#d05254" stroke="#d05254" stroke-width="0" stroke-linecap="butt"/><path d="M265.93298,192.99874c0,0.58857 -0.85884,1.06571 -1.91827,1.06571c-1.05943,0 -1.91827,-0.47713 -1.91827,-1.06571c0,-0.58857 0.85884,-1.06571 1.91827,-1.06571c1.05943,0 1.91827,0.47713 1.91827,1.06571z" fill="#d05254" stroke="#d05254" stroke-width="0" stroke-linecap="butt"/><path d="M271.50334,188.94477c-0.27033,1.05675 -2.10077,1.73377 -3.70887,1.3224c-1.60809,-0.41137 -2.30794,-1.60151 -2.03761,-2.65826c0.27033,-1.05675 1.48539,-1.42607 3.09348,-1.0147c1.60809,0.41137 2.92332,1.29381 2.65299,2.35056z" fill="#d05254" stroke="#d05254" stroke-width="0" stroke-linecap="butt"/><path d="M262.89933,188.29361c-0.4267,1.65864 -2.45564,2.38461 -4.34615,2.38461c-1.89051,0 -3.42308,-1.03319 -3.42308,-2.30769c0,-1.27451 1.68641,-2.53846 3.57692,-2.53846c1.89051,0 4.89341,-0.26375 4.19231,2.46153z" fill="#d05254" stroke="#d05254" stroke-width="0" stroke-linecap="butt"/><path d="M174.65086,186.97593c-0.27289,0.81866 -1.55324,0.69338 -2.76486,0.28951c-1.21162,-0.40387 -1.66492,-1.01032 -1.39203,-1.82898c0.27289,-0.81866 1.0917,-0.61646 2.30332,-0.21258c1.21162,0.40387 2.12646,0.93339 1.85357,1.75205z" fill="#d05254" stroke="#d05254" stroke-width="0" stroke-linecap="butt"/><path d="M168.19514,183.26039c-0.03281,1.51005 -1.65,1.84062 -3.58706,1.59827c-1.93705,-0.24235 -3.47166,-1.35085 -3.42764,-2.4759c0.04402,-1.12505 1.65,-1.84062 3.58706,-1.59827c1.93705,0.24235 3.46045,0.96595 3.42764,2.4759z" fill="#d05254" stroke="#d05254" stroke-width="0" stroke-linecap="butt"/><path d="M168.021,189.50901c-0.31152,0.60415 -1.08402,0.47844 -1.82033,0.09878c-0.73631,-0.37966 -1.1576,-0.8695 -0.84608,-1.47365c0.31152,-0.60415 1.16094,-0.63229 1.89725,-0.25263c0.73631,0.37966 1.08068,1.02335 0.76916,1.6275z" fill="#d05254" stroke="#d05254" stroke-width="0" stroke-linecap="butt"/><path d="M214.05165,168.12372c0,0.46944 -0.51488,0.85 -1.15,0.85c-0.63512,0 -1.15,-0.38056 -1.15,-0.85c0,-0.46944 0.51487,-0.85 1.15,-0.85c0.63512,0 1.15,0.38056 1.15,0.85z" fill="#d05254" stroke="#d05254" stroke-width="0" stroke-linecap="butt"/><path d="M209.15165,168.37372c0,0.60752 -0.85066,1.1 -1.9,1.1c-1.04934,0 -1.7921,-0.24534 -1.73334,-1.26667c0.04949,-0.86013 0.684,-0.93333 1.73334,-0.93333c1.04934,0 1.9,0.49248 1.9,1.1z" fill="#d05254" stroke="#d05254" stroke-width="0" stroke-linecap="butt"/><path d="M213.15165,173.02372c0,0.85604 -1.27974,1.55 -2.55,1.55c-1.27025,0 -2.3,-0.69396 -2.3,-1.55c0,-0.85604 1.02975,-1.8 2.3,-1.8c1.27025,0 2.55,-0.2227 2.55,1.8z" fill="#d05254" stroke="#d05254" stroke-width="0" stroke-linecap="butt"/><path d="M205.88499,172.32372c0.43803,0.95354 -0.81946,2.06667 -3.16667,2.06667c-2.34721,0 -4.16666,-0.51732 -4.16666,-1.56667c0,-1.04934 1.40279,-2.06667 2.83334,-2.06667c2.34721,0 3.75,-0.06601 4.5,1.56667z" fill="#d05254" stroke="#d05254" stroke-width="0" stroke-linecap="butt"/><path d="M267.34957,136.28622c3.04036,0.87052 7.03562,3.28182 8.1327,8.04095c1.35877,5.89437 -3.65691,6.56706 -6.58616,5.02988c-2.92925,-1.53718 -5.87394,-5.23673 -6.57714,-8.26317c-0.70321,-3.02644 1.85031,-5.71824 5.0306,-4.80766z" fill="#d05254" stroke="#d05254" stroke-width="0" stroke-linecap="butt"/><path d="M258.07346,138.62948c-0.64502,1.32399 -3.24677,1.10533 -5.67409,-0.07721c-2.42732,-1.18255 -3.53884,-2.54783 -2.89381,-3.87183c0.64503,-1.32399 3.13566,-1.43866 5.56298,-0.25612c2.42733,1.18255 3.64994,2.88116 3.00492,4.20515z" fill="#d05254" stroke="#d05254" stroke-width="0" stroke-linecap="butt"/><path d="M259.28951,146.0994c0,1.01252 -0.01235,1.36112 -1.05556,1.36112c-1.04321,0 -2.33333,-1.45971 -2.33333,-2.47223c0,-1.01252 1.07713,-1.02855 2.05555,-0.66666c1.12654,0.41666 1.33334,0.76525 1.33334,1.77777z" fill="#d05254" stroke="#d05254" stroke-width="0" stroke-linecap="butt"/><path d="M267.23348,152.46604c1.20765,1.41118 1.65986,3.18604 0.56469,4.08583c-0.73254,0.60185 -2.93428,0.38666 -4.14193,-1.02453c-1.20765,-1.41118 -1.38585,-3.24047 -0.39802,-4.08582c0.98783,-0.84536 2.76761,-0.38666 3.97526,1.02453z" fill="#d05254" stroke="#d05254" stroke-width="0" stroke-linecap="butt"/><path d="M277.83754,155.38226c0.40139,1.22338 -0.04599,2.50264 -0.99924,2.85733c-0.95325,0.35468 -2.0514,-0.34951 -2.45279,-1.57289c-0.40139,-1.22338 0.046,-2.50265 0.99925,-2.85733c0.95325,-0.35468 2.0514,0.34952 2.45278,1.57289z" fill="#d05254" stroke="#d05254" stroke-width="0" stroke-linecap="butt"/><path d="M172.61249,144.47068c-1.92152,1.77474 -4.58414,2.01714 -5.94714,0.54141c-1.363,-1.47573 -0.91023,-4.11075 1.01129,-5.88548c0.83524,-0.77144 1.67126,-1.7771 2.87398,-2.4387c1.56421,-0.86044 3.5758,-1.19651 5.23982,-0.26937c2.86822,1.59808 -1.25643,6.27741 -3.17795,8.05214z" fill="#d05254" stroke="#d05254" stroke-width="0" stroke-linecap="butt"/><path d="M184.21383,132.46883c0.33169,0.70862 -0.50106,2.24908 -2.16839,3.02953c-1.66733,0.78045 -3.53786,0.50536 -3.86955,-0.20326c-0.33169,-0.70861 0.75106,-1.91574 2.41839,-2.69619c1.66733,-0.78045 3.28786,-0.83869 3.61955,-0.13007z" fill="#d05254" stroke="#d05254" stroke-width="0" stroke-linecap="butt"/><path d="M180.61852,142.25305c-0.74857,0.20983 -1.45182,-0.21526 -1.57074,-0.94947c-0.11892,-0.7342 0.80818,-1.41618 1.55675,-1.62601c0.74857,-0.20984 1.53515,-0.20141 1.73741,0.7828c0.14972,0.72855 -0.97484,1.58285 -1.72341,1.79268z" fill="#d05254" stroke="#d05254" stroke-width="0" stroke-linecap="butt"/></g></g></svg>