<svg version="1.1" xmlns="http://www.w3.org/2000/svg" xmlns:xlink="http://www.w3.org/1999/xlink" width="30.74759" height="13.80255" viewBox="0,0,30.74759,13.80255"><g transform="translate(-223.91532,-165.00164)"><g data-paper-data="{&quot;isPaintingLayer&quot;:true}" fill-rule="nonzero" stroke-width="0.5" stroke-linecap="round" stroke-linejoin="miter" stroke-miterlimit="10" stroke-dasharray="" stroke-dashoffset="0" style="mix-blend-mode: normal"><path d="M254.16533,171.9437c0,0 1.4106,4.33527 -2.50226,5.64876c-8.31505,1.294 -10.48101,-1.56024 -13.4973,-1.45713c-2.28396,0.3347 -2.16456,1.84813 -4.59959,2.41886c-0.56167,0.13165 -1.36812,0.46313 -2.31596,0.46843c-0.59016,0.0033 -1.23513,-0.27294 -1.90996,-0.33501c-3.54928,-0.32643 -5.17494,-5.92573 -5.17494,-5.92573c0,0 1.76328,3.93902 6.6467,3.86739c4.70125,-0.06896 7.08058,-2.86739 7.08058,-2.86739c0,0 4.68284,4.12256 11.14856,2.41589c4.72531,-1.24727 5.12417,-4.23406 5.12417,-4.23406z" fill="#1d342d" stroke="#1d3323"/><path d="M230.4608,165.25431l15.61363,0.05304l-8,5.36363z" fill="#e96776" stroke="#e96776"/></g></g></svg>