<svg version="1.1" xmlns="http://www.w3.org/2000/svg" xmlns:xlink="http://www.w3.org/1999/xlink" width="132.24741" height="123.77214" viewBox="0,0,132.24741,123.77214"><g transform="translate(-168.09742,-171.87891)"><g data-paper-data="{&quot;isPaintingLayer&quot;:true}" fill-rule="nonzero" stroke-width="0.5" stroke-linecap="round" stroke-linejoin="miter" stroke-miterlimit="10" stroke-dasharray="" stroke-dashoffset="0" style="mix-blend-mode: normal"><path d="" fill="#b94848" stroke="#b94848"/><path d="M262.20483,295.65105z" fill="#b94848" stroke="none"/><path d="M183.00808,206.53736c0,0 1.81308,-2.47837 3.56119,-3.86455c0.88907,-0.70499 2.9658,-1.891 2.9658,-1.891c0,0 -4.45361,-1.29245 -9.94696,-1.20338c-5.20096,0.08433 -10.62447,2.00338 -10.62447,2.00338c0,0 5.41073,-5.87643 10.41159,-7.74862c9.02982,-3.38053 21.78841,-2.65138 21.78841,-2.65138c0,0 -5.56286,-2.54062 -9.19807,-3.64872c-4.74917,-1.44766 -16.85907,-4.29413 -16.85907,-4.29413c0,0 11.00171,-3.66256 24.35003,-2.9006c12.49571,0.71329 25.70711,6.44345 25.70711,6.44345l-16.8,-14.6c0,0 15.47801,1.10848 25.11334,3.53076c7.23301,2.02294 10.87189,3.03908 18.54329,6.68521c8.14717,3.87225 13.83384,9.07451 13.83384,9.07451c0,0 -2.34023,-6.00135 -3.51568,-8.01819c-1.93818,-3.32554 -5.74623,-8.38657 -5.74623,-8.38657c0,0 10.34161,2.42314 18.72099,8.46847c7.34882,5.52379 12.65044,11.87439 12.65044,11.87439c0,0 0.40883,-1.85781 0.4733,-3.05513c0.06861,-1.2741 -0.0733,-4.37344 -0.0733,-4.37344c0,0 6.28129,4.11554 8.74047,11.33295c5.73368,16.82774 1.45953,40.46705 1.45953,40.46705z" fill="#ffffff" stroke="#ffffff"/></g></g></svg>