<svg version="1.1" xmlns="http://www.w3.org/2000/svg" xmlns:xlink="http://www.w3.org/1999/xlink" width="146.05609" height="114.69652" viewBox="0,0,146.05609,114.69652"><g transform="translate(-170.00828,-143.07279)"><g data-paper-data="{&quot;isPaintingLayer&quot;:true}" fill-rule="nonzero" stroke-linejoin="miter" stroke-miterlimit="10" stroke-dasharray="" stroke-dashoffset="0" style="mix-blend-mode: normal"><path d="M269.68678,247.31123c0,0 -2.5639,3.88531 -4.27404,5.49491c-1.46931,1.38291 -2.8092,2.59894 -6.88995,2.62651c-7.45051,0.05033 -10.61015,-10.09993 -10.61015,-10.09993c0,0 2.81955,0.76471 8.38326,1.46167c5.72558,0.16491 13.39088,0.51683 13.39088,0.51683z" fill="#81f4e9" stroke="#84f3e6" stroke-width="0.5" stroke-linecap="round"/><path d="M257.93035,256.9487c-2.35104,-0.36003 -2.46994,-0.34714 -3.39147,-0.6242c-1.33711,-0.18682 -4.18007,-1.38782 -7.25344,-10.93872c0.36062,0.05353 -0.13847,0.07026 0.23704,0.07026c0.26283,0 0.30273,-0.24436 0.55855,-0.27087c3.89365,9.65484 8.80077,9.30196 10.64381,9.27778c1.96551,-0.11051 2.46186,-0.10207 5.07019,-1.51728c0.50867,-0.28757 2.79924,-2.22488 4.96437,-4.87534c0.04279,0.00072 0.54721,-0.84506 0.59017,-0.84506c0.26249,0 0.59873,-0.01355 0.85421,-0.04c-1.23034,1.73089 -1.41159,3.6193 -2.29488,4.98059c-1.63171,2.51471 -3.72918,3.95437 -5.64523,4.38539z" fill="#74dad0" stroke="#74dad0" stroke-width="0.5" stroke-linecap="butt"/><path d="M191.58634,252.34266c0,0 -1.03233,4.663 -7.75122,4.74945c-6.44309,0.0829 -10.64841,-8.80046 -10.64841,-8.80046c0,0 4.68291,2.51539 6.16488,2.63769c1.32906,0.10968 4.23914,0.65595 6.7996,0.9611c2.92198,0.34823 5.43515,0.45222 5.43515,0.45222z" fill="#81f4e9" stroke="#84f3e6" stroke-width="0.5" stroke-linecap="round"/><path d="M192.64842,251.8505c0,0 -1.57584,6.57236 -9.89448,5.56352c-4.92256,-0.02871 -8.6733,-6.39727 -10.03985,-9.6344c0.27125,0.07225 0.0929,-0.23484 0.27648,-0.24877c4.88479,5.8029 6.33203,6.62857 7.60787,7.04815c0.46501,0.15293 1.21331,0.63241 1.66297,0.81347c3.56532,1.43562 10.387,-3.54198 10.387,-3.54198z" fill="#74dad0" stroke="#74dad0" stroke-width="0.5" stroke-linecap="round"/><path d="M230.02009,185.05095c0,2.62939 0.6612,8.09343 -2.79687,10.21185c-5.78289,3.54261 -13.07225,4.45482 -22.70313,4.45482c-6.28745,0 -12.82283,-1.84073 -16.44874,-5.38183c-2.5317,-2.47248 -3.21793,-6.03014 -3.21793,-9.28483c0,-7.91608 9.32296,-18.09973 20,-18c17.84417,0.16666 25.16667,10.08392 25.16667,18z" fill="#81f4e9" stroke="#84f3e6" stroke-width="0" stroke-linecap="butt"/><path d="M282.12062,207.45118c0,0 4.13881,-0.40209 5.9526,-0.52103c2.18379,-0.1432 6.9974,-0.02898 6.9974,-0.02898c0,0 0.47026,2.82766 2.3184,3.13267c1.71026,0.28225 2.0816,-3.53267 2.0816,-3.53267c0,0 4.85739,-0.61563 7.37664,-0.64753c2.7304,-0.03456 8.42336,0.22531 8.42336,0.22531c0,0 0.51667,1.84225 0.54375,4.59632c0.0267,2.71499 -1.54375,7.2259 -1.54375,7.2259c0,0 -9.44162,-1.19963 -16.96166,-0.6954c-2.60236,0.17449 -5.92854,1.14013 -8.32246,1.55903c-1.83047,0.32031 -3.49088,0.51137 -3.49088,0.51137c0,0 -1.37206,-3.35662 -1.83975,-5.10269c-0.52555,-1.96203 -1.53525,-6.47231 -1.53525,-6.47231z" fill="#81f4e9" stroke="#84f3e6" stroke-width="0.5" stroke-linecap="round"/><path d="M251.45612,148.92648c0.74246,4.52207 -4.46207,5.97502 -8.65716,7.8732c-6.56257,2.96941 -12.20659,3.20553 -13.13227,1.07004c-1.62787,-3.7554 0.17636,-10.54645 6.94288,-13.01605c6.76651,-2.46961 14.17455,-0.02012 14.84655,4.07281z" fill="#81f4e9" stroke="#84f3e6" stroke-width="0" stroke-linecap="butt"/><path d="M184.4204,144.52033c6.08996,2.4696 8.21379,9.76065 6.74869,13.51605c-0.83312,2.13549 -5.91283,1.89937 -11.81924,-1.07004c-3.77564,-1.89818 -9.95979,-3.85113 -9.29157,-8.3732c0.77148,-6.25959 8.27215,-6.54242 14.36212,-4.07281z" fill="#81f4e9" stroke="#84f3e6" stroke-width="0" stroke-linecap="butt"/></g></g></svg>