<svg version="1.1" xmlns="http://www.w3.org/2000/svg" xmlns:xlink="http://www.w3.org/1999/xlink" width="98.14694" height="27.27937" viewBox="0,0,98.14694,27.27937"><g transform="translate(-191.88319,-178.18357)"><g data-paper-data="{&quot;isPaintingLayer&quot;:true}" fill="#1f2334" fill-rule="nonzero" stroke="#1f2334" stroke-width="0.5" stroke-linecap="round" stroke-linejoin="miter" stroke-miterlimit="10" stroke-dasharray="" stroke-dashoffset="0" style="mix-blend-mode: normal"><path d="M205.5612,199.78641c0,0 8.75437,-2.70486 5.56912,-11.82081c-2.47231,-7.07558 -13.89544,-4.74813 -13.89544,-4.74813c0,0 0.05298,-1.1321 0.22007,-1.7105c0.19085,-0.66064 0.86326,-2.0395 0.86326,-2.0395c0,0 4.77422,-0.62366 9.16497,0.12847c3.59199,0.6153 7.42697,3.83496 7.63007,10.5182c-0.80648,13.05398 -10.54504,13.76999 -10.54504,13.76999c0,0 -1.90049,0.13934 -5.36878,-0.07138c-2.86761,-0.17423 -5.94202,-1.9185 -7.06623,-5.61645c-0.22159,-1.31464 -0.40727,-1.48204 -0.15595,-3.18179c1.47162,-9.9531 9.4411,-8.58526 9.4411,-8.58526c0,0 7.37596,-0.35861 7.52788,4.8395c0.17218,5.89141 -5.59931,6.01764 -5.59931,6.01764c0,0 -2.81951,0.40404 -3.60266,-0.74569c-1.30936,-1.92227 -0.18305,-3.82574 -0.18305,-3.82574c0,0 0.5829,1.97029 1.49778,2.57467c0.41814,0.27623 4.80163,1.26503 5.00222,-2.57467c0.31296,-5.99072 -7.07143,-3.42857 -7.07143,-3.42857c0,0 -4.2426,1.31739 -3.47378,6.59551c0.85588,5.8757 10.04521,3.90449 10.04521,3.90449z"/><path d="M279.13257,200.76347c0,0 9.75817,-2.93747 6.20769,-12.83737c-2.75579,-7.68406 -15.48873,-5.15646 -15.48873,-5.15646c0,0 0.05905,-1.22946 0.2453,-1.8576c0.21273,-0.71745 0.96224,-2.21489 0.96224,-2.21489c0,0 5.32165,-0.67729 10.21585,0.13952c4.00386,0.66821 8.27857,4.16476 8.50496,11.42274c-0.89895,14.17659 -11.75417,14.95417 -11.75417,14.95417c0,0 -2.11841,0.15132 -5.98438,-0.07752c-3.19642,-0.18921 -6.62335,-2.08349 -7.87647,-6.09945c-0.247,-1.4277 -0.45397,-1.60949 -0.17383,-3.45542c1.64036,-10.80904 10.52364,-9.32357 10.52364,-9.32357c0,0 8.22171,-0.38945 8.39105,5.25568c0.19192,6.39806 -6.24134,6.53514 -6.24134,6.53514c0,0 -3.1428,0.43879 -4.01575,-0.80982c-1.4595,-2.08758 -0.20404,-4.15474 -0.20404,-4.15474c0,0 0.64974,2.13973 1.66952,2.79608c0.46609,0.29999 5.3522,1.37382 5.57579,-2.79608c0.34884,-6.50591 -7.88226,-3.72342 -7.88226,-3.72342c0,0 -4.72907,1.43068 -3.87209,7.16271c0.95402,6.38099 11.19702,4.24027 11.19702,4.24027z"/></g></g></svg>