<svg version="1.1" xmlns="http://www.w3.org/2000/svg" xmlns:xlink="http://www.w3.org/1999/xlink" width="112.07318" height="40.43599" viewBox="0,0,112.07318,40.43599"><g transform="translate(-189.04062,-160.48675)"><g data-paper-data="{&quot;isPaintingLayer&quot;:true}" fill-rule="nonzero" stroke-linejoin="miter" stroke-miterlimit="10" stroke-dasharray="" stroke-dashoffset="0" style="mix-blend-mode: normal"><path d="M287.25349,162.02085c0,0 1.18225,3.40577 1.06064,8.59695c-0.06826,2.91353 -1.73702,8.5684 -1.73702,8.5684c0,0 1.57929,-1.15821 2.88822,-3.162c1.52996,-2.34215 2.42153,-4.20493 3.24856,-6.7428c1.05459,-3.23612 1.38283,-7.5128 1.38283,-7.5128c0,0 1.73408,5.35446 0.73853,11.17132c-0.27155,1.5866 -0.67869,3.97115 -1.61033,6.15664c-1.06863,2.50685 -2.6577,4.72506 -2.6577,4.72506c0,0 4.7805,-3.55463 6.58596,-6.04752c1.90024,-2.62375 3.70087,-6.17854 3.70087,-6.17854c0,0 0.25024,5.19584 -1.78367,8.5732c-1.95519,3.24665 -6.48502,7.86835 -6.48502,7.86835c0,0 2.52928,-0.68324 3.58356,-1.26825c1.20703,-0.66976 3.19225,-2.06797 3.19225,-2.06797c0,0 -0.56347,2.10335 -2.68195,3.83728c-1.253,1.02555 -4.01841,2.80659 -4.01841,2.80659c0,0 -2.59524,6.59666 -9.0795,8.34929c-11.23161,3.03577 -17.94255,-1.96017 -17.94255,-1.96017c0,0 -0.94229,-3.13075 -0.11208,-7.6953c0.75172,-4.13302 2.89512,-8.03799 4.83157,-9.85216c4.07459,-3.81731 10.10846,-3.44564 10.10846,-3.44564c0,0 3.22576,-3.5835 4.32861,-5.86066c0.52857,-1.09141 1.51951,-2.73782 1.96558,-4.41682c0.68498,-2.57826 0.49259,-4.44241 0.49259,-4.44241z" fill="#1d3323" stroke="#1d3323" stroke-width="0.5" stroke-linecap="round"/><path d="M197.85445,183.48469c0,0 -2.81697,-3.72631 -3.88516,-7.72626c-0.93998,-3.51986 -0.37159,-7.65187 -0.37159,-7.65187c0,0 2.03813,4.5087 3.38326,6.47104c1.1676,1.70336 4.04653,4.47016 4.04653,4.47016c0,0 -1.43713,-5.14224 -1.61635,-7.70462c-0.21499,-3.07363 0.88634,-6.69333 0.88634,-6.69333c0,0 1.55634,4.72082 2.44269,6.94502c0.75115,1.88493 2.67685,4.8421 2.67685,4.8421c0,0 5.60102,-1.68737 9.45795,3.44486c4.99171,6.64222 4.01476,16.54107 4.01476,16.54107c0,0 -4.48381,1.71144 -10.4045,1.25012c-1.46335,-0.11402 -5.32194,-1.02437 -7.49621,-2.35313c-3.58167,-2.18887 -5.49007,-4.95484 -5.49007,-4.95484c0,0 -1.47079,-0.9041 -3.02839,-2.07503c-1.3702,-1.03004 -2.20896,-2.85742 -2.20896,-2.85742c0,0 2.2143,1.10738 3.36434,1.49542c1.0504,0.35443 3.16321,0.48286 3.16321,0.48286c0,0 -3.86785,-3.38444 -5.39711,-5.2262c-2.35829,-2.84021 -2.09241,-5.33443 -2.09241,-5.33443c0,0 2.45718,2.62507 3.91568,3.77235c1.42444,1.12048 4.63913,2.86211 4.63913,2.86211z" fill="#1d3323" stroke="#1d3323" stroke-width="0.5" stroke-linecap="round"/><path d="M206.58147,186.42938c-1.73,2.5426 -4.7147,3.253 -6.53656,2.0134c-1.82187,-1.23961 -1.79098,-3.95981 -0.06098,-6.50241c1.73,-2.5426 4.60936,-3.59887 6.43122,-2.35927c1.82187,1.23961 1.89632,4.30569 0.16632,6.84829z" fill="#ffffff" stroke="none" stroke-width="0" stroke-linecap="butt"/><path d="M212.87736,181.95329c0,0 4.22932,2.39768 4.48464,11.61665c0.01873,0.67619 -0.06408,1.2098 -0.36532,1.52878c-0.26626,0.28196 -0.94446,0.47614 -1.60197,0.59789c-8.82073,1.63341 -13.6757,-1.43929 -13.6757,-1.43929c0,0 0.10172,-0.02237 0.66913,-0.03932c1.69284,-0.05057 5.35987,-0.48018 7.71319,-3.10031c4.01555,-4.4708 2.77601,-9.16441 2.77601,-9.16441z" fill="#3b6748" stroke="#3b6748" stroke-width="0.5" stroke-linecap="round"/><path d="M276.35791,189.97759c-1.83484,2.33357 -4.1669,3.91046 -6.29982,2.82502c-2.13292,-1.08544 -2.77056,-4.1101 -1.42419,-6.75574c1.34637,-2.64565 4.54544,-4.43928 6.70806,-3.41428c3.13881,1.48769 2.3755,5.61593 1.01595,7.345z" fill="#ffffff" stroke="none" stroke-width="0" stroke-linecap="butt"/><path d="M283.71844,180.22509c0,0 7.89596,4.00407 6.85421,10.50274c-1.15987,7.23551 -15.09817,7.36762 -15.09817,7.36762c0,0 0.02349,-0.06853 0.47334,-0.35496c1.67996,-1.06967 5.83658,-3.96602 7.53817,-7.41432c2.1236,-4.30348 0.96803,-8.10829 0.32128,-9.6357c-0.19413,-0.45847 -0.08884,-0.46537 -0.08884,-0.46537z" fill="#3b6748" stroke="#3b6748" stroke-width="0.5" stroke-linecap="round"/></g></g></svg>