<svg version="1.1" xmlns="http://www.w3.org/2000/svg" xmlns:xlink="http://www.w3.org/1999/xlink" width="112.07319" height="40.43597" viewBox="0,0,112.07319,40.43597"><g transform="translate(-189.04061,-160.48675)"><g data-paper-data="{&quot;isPaintingLayer&quot;:true}" fill-rule="nonzero" stroke-linejoin="miter" stroke-miterlimit="10" stroke-dasharray="" stroke-dashoffset="0" style="mix-blend-mode: normal"><path d="M274.42044,192.31907c-1.8682,2.30695 -4.22268,3.85015 -6.33978,2.73416c-2.1171,-1.11599 -2.71119,-4.1495 -1.32693,-6.77552c1.38426,-2.62602 4.60879,-4.37348 6.75645,-3.31749c3.1171,1.53266 2.29452,5.6495 0.91026,7.35885z" fill="#ffffff" stroke="none" stroke-width="0" stroke-linecap="butt"/><path d="M281.92042,182.67339c0,0 7.83758,4.11717 6.70252,10.60019c-1.26376,7.21809 -15.20252,7.14981 -15.20252,7.14981c0,0 0.02447,-0.06819 0.47839,-0.34812c1.69516,-1.04541 5.89299,-3.88171 7.64398,-7.30519c2.18525,-4.27251 1.08449,-8.09354 0.45977,-9.63009c-0.18752,-0.46121 -0.08214,-0.4666 -0.08214,-0.4666z" fill="#663b26" stroke="#663b26" stroke-width="0.5" stroke-linecap="round"/><path d="M287.25348,162.02084c0,0 1.18225,3.40577 1.06063,8.59695c-0.06826,2.91353 -1.73703,8.5684 -1.73703,8.5684c0,0 1.5793,-1.15822 2.88822,-3.162c1.52996,-2.34214 2.42153,-4.20493 3.24856,-6.7428c1.05459,-3.23612 1.38284,-7.51279 1.38284,-7.51279c0,0 1.73408,5.35446 0.73853,11.17131c-0.27155,1.5866 -0.67869,3.97115 -1.61033,6.15663c-1.06863,2.50685 -2.6577,4.72507 -2.6577,4.72507c0,0 4.78051,-3.55463 6.58596,-6.04752c1.90024,-2.62375 3.70087,-6.17854 3.70087,-6.17854c0,0 0.25024,5.19583 -1.78367,8.57319c-1.95519,3.24665 -6.48502,7.86835 -6.48502,7.86835c0,0 2.52928,-0.68324 3.58356,-1.26825c1.20702,-0.66976 3.19225,-2.06797 3.19225,-2.06797c0,0 -0.56347,2.10334 -2.68196,3.83728c-1.25299,1.02555 -4.01841,2.80659 -4.01841,2.80659c0,0 -2.59524,6.59667 -9.0795,8.34929c-11.23161,3.03578 -17.94255,-1.96017 -17.94255,-1.96017c0,0 -0.9423,-3.13075 -0.11208,-7.6953c0.75173,-4.13303 2.89512,-8.03799 4.83157,-9.85217c4.07459,-3.81731 10.10846,-3.44564 10.10846,-3.44564c0,0 3.22575,-3.5835 4.3286,-5.86066c0.52857,-1.09141 1.51951,-2.73782 1.96558,-4.41682c0.68498,-2.57826 0.49259,-4.44241 0.49259,-4.44241z" fill="#341e13" stroke="#341e13" stroke-width="0.5" stroke-linecap="round"/><path d="M197.85444,183.48468c0,0 -2.81697,-3.72631 -3.88515,-7.72626c-0.93998,-3.51986 -0.37159,-7.65187 -0.37159,-7.65187c0,0 2.03813,4.50869 3.38326,6.47104c1.1676,1.70336 4.04653,4.47017 4.04653,4.47017c0,0 -1.43713,-5.14224 -1.61635,-7.70462c-0.21499,-3.07363 0.88634,-6.69332 0.88634,-6.69332c0,0 1.55634,4.72082 2.44269,6.94502c0.75115,1.88493 2.67685,4.8421 2.67685,4.8421c0,0 5.60102,-1.68736 9.45794,3.44486c4.99171,6.64222 4.01476,16.54107 4.01476,16.54107c0,0 -4.48381,1.71144 -10.4045,1.25012c-1.46336,-0.11402 -5.32194,-1.02437 -7.49621,-2.35313c-3.58167,-2.18887 -5.49007,-4.95484 -5.49007,-4.95484c0,0 -1.47079,-0.9041 -3.02839,-2.07503c-1.37019,-1.03005 -2.20896,-2.85742 -2.20896,-2.85742c0,0 2.2143,1.10738 3.36434,1.49542c1.0504,0.35442 3.16321,0.48286 3.16321,0.48286c0,0 -3.86784,-3.38444 -5.39711,-5.22621c-2.35828,-2.84022 -2.09241,-5.33443 -2.09241,-5.33443c0,0 2.45718,2.62507 3.91569,3.77235c1.42444,1.12047 4.63912,2.86211 4.63912,2.86211z" fill="#341e13" stroke="#341e13" stroke-width="0.5" stroke-linecap="round"/><path d="M206.58146,186.42938c-1.73001,2.5426 -4.7147,3.25299 -6.53655,2.0134c-1.82187,-1.23961 -1.79099,-3.95981 -0.06098,-6.50241c1.73001,-2.5426 4.60935,-3.59887 6.43121,-2.35927c1.82187,1.23961 1.89633,4.30569 0.16632,6.84829z" fill="#ffffff" stroke="none" stroke-width="0" stroke-linecap="butt"/><path d="M212.87736,181.95329c0,0 4.22932,2.39768 4.48464,11.61665c0.01872,0.67619 -0.06408,1.2098 -0.36532,1.52878c-0.26626,0.28196 -0.94447,0.47615 -1.60197,0.59789c-8.82074,1.63341 -13.6757,-1.43928 -13.6757,-1.43928c0,0 0.10171,-0.02238 0.66913,-0.03932c1.69284,-0.05057 5.35988,-0.48018 7.7132,-3.10031c4.01555,-4.4708 2.77601,-9.16441 2.77601,-9.16441z" fill="#663b26" stroke="#663b26" stroke-width="0.5" stroke-linecap="round"/><path d="M276.3579,189.97758c-1.83484,2.33357 -4.1669,3.91046 -6.29982,2.82502c-2.13293,-1.08544 -2.77056,-4.1101 -1.42419,-6.75575c1.34636,-2.64565 4.54545,-4.43928 6.70807,-3.41428c3.13881,1.48769 2.3755,5.61593 1.01595,7.34501z" fill="#ffffff" stroke="none" stroke-width="0" stroke-linecap="butt"/><path d="M283.71844,180.22508c0,0 7.89596,4.00408 6.85421,10.50274c-1.15987,7.23551 -15.09816,7.36762 -15.09816,7.36762c0,0 0.02348,-0.06854 0.47333,-0.35497c1.67996,-1.06967 5.83658,-3.96602 7.53818,-7.41432c2.1236,-4.30348 0.96803,-8.10829 0.32128,-9.63571c-0.19413,-0.45846 -0.08884,-0.46537 -0.08884,-0.46537z" fill="#663b26" stroke="#663b26" stroke-width="0.5" stroke-linecap="round"/></g></g></svg>