<svg version="1.1" xmlns="http://www.w3.org/2000/svg" xmlns:xlink="http://www.w3.org/1999/xlink" width="99.83333" height="29.08333" viewBox="0,0,99.83333,29.08333"><g transform="translate(-190.9697,-176.56818)"><g data-paper-data="{&quot;isPaintingLayer&quot;:true}" fill-rule="nonzero" stroke="none" stroke-width="0" stroke-linecap="butt" stroke-linejoin="miter" stroke-miterlimit="10" stroke-dasharray="" stroke-dashoffset="0" style="mix-blend-mode: normal"><path d="M215.30303,189.44318c0,7.11067 -5.4472,12.875 -12.16666,12.875c-6.71946,0 -12.16667,-5.76433 -12.16667,-12.875c0,-7.11067 5.44721,-12.875 12.16667,-12.875c6.71946,0 12.16666,5.76433 12.16666,12.875z" fill="#1d3323"/><path d="M290.80303,191.94318c0,7.57091 -6.34263,13.70833 -14.16666,13.70833c-7.82403,0 -14.16667,-6.13743 -14.16667,-13.70833c0,-7.57091 6.34264,-13.70833 14.16667,-13.70833c7.82403,0 14.16666,6.13743 14.16666,13.70833z" fill="#1d3323"/><path d="M278.9697,187.26217c0,3.16055 -2.64898,5.72268 -5.91667,5.72268c-3.26768,0 -5.91667,-2.56213 -5.91667,-5.72268c0,-3.16055 2.64898,-5.72268 5.91667,-5.72268c3.26768,0 5.91667,2.56213 5.91667,5.72268z" fill="#fdffff"/><path d="M204.42542,188.09377c-1.92605,2.25872 -5.21852,2.61365 -7.35394,0.79274c-2.13541,-1.8209 -2.30514,-5.1281 -0.37908,-7.38682c1.92605,-2.25872 5.21852,-2.61365 7.35394,-0.79274c2.13541,1.8209 2.30514,5.1281 0.37908,7.38682z" fill="#fdffff"/><path d="M284.80303,199.06819c0,1.79493 -1.60431,3.25 -3.58333,3.25c-1.97902,0 -3.58333,-1.45507 -3.58333,-3.25c0,-1.79493 1.60431,-3.25 3.58333,-3.25c1.97902,0 3.58333,1.45507 3.58333,3.25z" fill="#3b6748"/><path d="M208.15009,196.13506c0,1.68582 -1.37782,3.05243 -3.07745,3.05243c-1.69963,0 -3.07745,-1.36662 -3.07745,-3.05243c0,-1.68582 1.37782,-3.05243 3.07745,-3.05243c1.69963,0 3.07745,1.36662 3.07745,3.05243z" fill="#3b6748"/></g></g></svg>