<svg version="1.1" xmlns="http://www.w3.org/2000/svg" xmlns:xlink="http://www.w3.org/1999/xlink" width="158.71119" height="128.92411" viewBox="0,0,158.71119,128.92411"><g transform="translate(-156.01155,-128.90423)"><g data-paper-data="{&quot;isPaintingLayer&quot;:true}" fill-rule="nonzero" stroke-width="0.5" stroke-linecap="round" stroke-linejoin="miter" stroke-miterlimit="10" stroke-dasharray="" stroke-dashoffset="0" style="mix-blend-mode: normal"><path d="M191.9596,251.30165c0,0 -2.24251,6.90569 -9.56115,6.23018c-8.55729,-0.78983 -13.12404,-16.35478 -13.12404,-16.35478c0,0 5.67828,9.63661 12.18054,12.25482c3.56532,1.43562 10.50465,-2.13022 10.50465,-2.13022z" fill="#d0e3e4" stroke="#d0e3e4"/><path d="M276.2265,209.31774c0,0 3.2089,6.51784 5.11243,9.49516c1.01508,1.58769 2.78475,5.10056 4.15304,6.82863c1.08753,1.37348 1.9215,1.17377 1.9215,1.17377c0,0 0.15261,-0.24797 -0.50736,-1.70362c-0.87314,-1.92582 -2.71453,-5.51145 -3.7466,-8.96662c-0.9611,-3.21758 -1.48294,-8.84862 -1.48294,-8.84862l11.88167,-0.43928c0,0 -0.04858,3.15614 2.23823,3.2606c2.42936,0.11098 2.48571,-3.1622 2.48571,-3.1622c0,0 5.83733,0.21476 8.39831,0.26219c2.60159,0.04818 7.69643,-0.02454 7.69643,-0.02454c0,0 0.4399,3.60366 -0.56532,7.9096c-0.44118,1.88982 -1.167,4.01956 -2.19291,6.08638c-1.04709,2.10949 -2.68255,4.01327 -4.11058,5.50029c-2.33589,2.4324 -4.72162,3.45134 -4.72162,3.45134c0,0 -1.40296,10.12475 -10.21722,14.75179c-3.50576,1.84034 -5.96164,2.51115 -9.34253,3.21551c-5.97078,1.24393 -11.7273,1.36012 -11.7273,1.36012l-4.26372,0.42329c0,0 -5.06776,4.95131 -9.3017,5.25092c-6.66705,0.47178 -6.0331,-4.75592 -9.37995,-4.70745c-5.84575,0.08466 -16.72121,0.67517 -27.52944,0.83469c-14.57845,0.21516 -28.85952,-0.00369 -28.85952,-0.00369c0,0 -9.64226,7.68046 -16.09711,0.07445c-18.94344,-22.32183 -18.73381,-54.68544 -18.73381,-54.68544c0,0 -2.82906,-32.67828 0.70179,-49.25823c0.68869,-3.23391 2.63595,-6.93742 4.24138,-8.88368c1.57563,-2.21048 4.08052,-4.15802 6.92244,-5.19585c14.77708,-5.39639 37.51285,-3.87455 37.51285,-3.87455c0,0 26.93001,-1.07995 53.64556,0.9393c3.26999,0.21551 8.22395,2.27597 12.94773,6.86215c10.90572,9.01814 5.30709,39.10209 3.31715,58.35878c-0.90128,8.72173 -0.39657,13.71481 -0.39657,13.71481z" fill="#e6fcfe" stroke="#e6fcfe"/><path d="M276.66115,230.42442c0,0 -3.10327,9.81939 -6.40468,15.68078c-4.25122,7.54769 -8.42455,10.23558 -10.62534,10.31199c-1.11799,0.03882 -4.32915,0.17088 -5.22422,-0.09822c-1.77415,-0.5334 -4.75099,-0.82052 -7.648,-8.74866c-3.14694,-8.6121 -3.68694,-21.55298 -3.68694,-21.55298c0,0 1.34777,16.60308 5.73725,22.68964c4.09506,6.94103 6.50521,5.9995 8.39689,5.97469c1.90908,-0.10734 2.88571,0.10366 5.41915,-1.27092c0.62283,-0.35211 3.40245,-1.46965 6.12424,-6.02059c3.87152,-6.47333 7.91164,-16.96574 7.91164,-16.96574z" fill="#d0e3e4" stroke="none"/></g></g></svg>